{
    "asset" : {
        "generator" : "Khronos glTF Blender I/O v1.5.17",
        "version" : "2.0"
    },
    "scene" : 0,
    "scenes" : [
        {
            "name" : "Scene",
            "nodes" : [
                0,
                1
            ]
        }
    ],
    "nodes" : [
        {
            "mesh" : 0,
            "name" : "Path.001_Path",
            "rotation" : [
                0.7071068286895752,
                0,
                0,
                0.7071067094802856
            ]
        },
        {
            "mesh" : 1,
            "name" : "Path_3.001_Path_3",
            "rotation" : [
                0.7071068286895752,
                0,
                0,
                0.7071067094802856
            ]
        }
    ],
    "materials" : [
        {
            "doubleSided" : true,
            "name" : "28fa0c",
            "pbrMetallicRoughness" : {
                "baseColorFactor" : [
                    0.15625,
                    0.9765625,
                    0.046875,
                    1
                ],
                "metallicFactor" : 0
            }
        }
    ],
    "meshes" : [
        {
            "name" : "Path.001_Path",
            "primitives" : [
                {
                    "attributes" : {
                        "POSITION" : 0,
                        "NORMAL" : 1,
                        "TEXCOORD_0" : 2
                    },
                    "indices" : 3,
                    "material" : 0
                }
            ]
        },
        {
            "name" : "Path_3.001_Path_3",
            "primitives" : [
                {
                    "attributes" : {
                        "POSITION" : 4,
                        "NORMAL" : 5,
                        "TEXCOORD_0" : 6
                    },
                    "indices" : 7,
                    "material" : 0
                }
            ]
        }
    ],
    "accessors" : [
        {
            "bufferView" : 0,
            "componentType" : 5126,
            "count" : 1760,
            "max" : [
                119.2699966430664,
                24.9082088470459,
                92.6917953491211
            ],
            "min" : [
                -120,
                -25.638208389282227,
                -146.69178771972656
            ],
            "type" : "VEC3"
        },
        {
            "bufferView" : 1,
            "componentType" : 5126,
            "count" : 1760,
            "type" : "VEC3"
        },
        {
            "bufferView" : 2,
            "componentType" : 5126,
            "count" : 1760,
            "type" : "VEC2"
        },
        {
            "bufferView" : 3,
            "componentType" : 5123,
            "count" : 5304,
            "type" : "SCALAR"
        },
        {
            "bufferView" : 4,
            "componentType" : 5126,
            "count" : 1440,
            "max" : [
                87.30000305175781,
                24.84878921508789,
                19.46695899963379
            ],
            "min" : [
                -83.0199966430664,
                -25.408788681030273,
                -93.46695709228516
            ],
            "type" : "VEC3"
        },
        {
            "bufferView" : 5,
            "componentType" : 5126,
            "count" : 1440,
            "type" : "VEC3"
        },
        {
            "bufferView" : 6,
            "componentType" : 5126,
            "count" : 1440,
            "type" : "VEC2"
        },
        {
            "bufferView" : 7,
            "componentType" : 5123,
            "count" : 4284,
            "type" : "SCALAR"
        }
    ],
    "bufferViews" : [
        {
            "buffer" : 0,
            "byteLength" : 21120,
            "byteOffset" : 0
        },
        {
            "buffer" : 0,
            "byteLength" : 21120,
            "byteOffset" : 21120
        },
        {
            "buffer" : 0,
            "byteLength" : 14080,
            "byteOffset" : 42240
        },
        {
            "buffer" : 0,
            "byteLength" : 10608,
            "byteOffset" : 56320
        },
        {
            "buffer" : 0,
            "byteLength" : 17280,
            "byteOffset" : 66928
        },
        {
            "buffer" : 0,
            "byteLength" : 17280,
            "byteOffset" : 84208
        },
        {
            "buffer" : 0,
            "byteLength" : 11520,
            "byteOffset" : 101488
        },
        {
            "buffer" : 0,
            "byteLength" : 8568,
            "byteOffset" : 113008
        }
    ],
    "buffers" : [
        {
            "byteLength" : 121576,
            "uri" : "data:application/octet-stream;base64,"
        }
    ]
}
