{
    "asset" : {
        "generator" : "Khronos glTF Blender I/O v1.5.17",
        "version" : "2.0"
    },
    "scene" : 0,
    "scenes" : [
        {
            "name" : "Scene",
            "nodes" : [
                0,
                1,
                2,
                3,
                4
            ]
        }
    ],
    "nodes" : [
        {
            "mesh" : 0,
            "name" : "Cube_Cube.001",
            "rotation" : [
                0.7071068286895752,
                0,
                0,
                0.7071067094802856
            ]
        },
        {
            "mesh" : 1,
            "name" : "Cylinder",
            "rotation" : [
                0.7071068286895752,
                0,
                0,
                0.7071067094802856
            ]
        },
        {
            "mesh" : 2,
            "name" : "Sphere_Sphere.001",
            "rotation" : [
                0.7071068286895752,
                0,
                0,
                0.7071067094802856
            ]
        },
        {
            "mesh" : 3,
            "name" : "Sphere.001_Sphere.002",
            "rotation" : [
                0.7071068286895752,
                0,
                0,
                0.7071067094802856
            ]
        },
        {
            "mesh" : 4,
            "name" : "Sphere.002_Sphere.003",
            "rotation" : [
                0.7071068286895752,
                0,
                0,
                0.7071067094802856
            ]
        }
    ],
    "materials" : [
        {
            "doubleSided" : true,
            "name" : "191414",
            "pbrMetallicRoughness" : {
                "baseColorFactor" : [
                    0.009721223264932632,
                    0.006995409727096558,
                    0.006995411589741707,
                    1
                ],
                "metallicFactor" : 0,
                "roughnessFactor" : 0.5
            }
        },
        {
            "doubleSided" : true,
            "name" : "01db95",
            "pbrMetallicRoughness" : {
                "baseColorFactor" : [
                    0.012286439538002014,
                    0.485150009393692,
                    0.08865562081336975,
                    1
                ],
                "metallicFactor" : 0,
                "roughnessFactor" : 0.5
            }
        },
        {
            "doubleSided" : true,
            "name" : "f7f5f7",
            "pbrMetallicRoughness" : {
                "baseColorFactor" : [
                    0.800000011920929,
                    0.800000011920929,
                    0.800000011920929,
                    1
                ],
                "metallicFactor" : 0,
                "roughnessFactor" : 0.5
            }
        }
    ],
    "meshes" : [
        {
            "name" : "Cube_Cube.001",
            "primitives" : [
                {
                    "attributes" : {
                        "POSITION" : 0,
                        "NORMAL" : 1,
                        "TEXCOORD_0" : 2
                    },
                    "indices" : 3,
                    "material" : 0
                }
            ]
        },
        {
            "name" : "Cylinder",
            "primitives" : [
                {
                    "attributes" : {
                        "POSITION" : 4,
                        "NORMAL" : 5,
                        "TEXCOORD_0" : 6
                    },
                    "indices" : 7,
                    "material" : 1
                }
            ]
        },
        {
            "name" : "Sphere_Sphere.001",
            "primitives" : [
                {
                    "attributes" : {
                        "POSITION" : 8,
                        "NORMAL" : 9,
                        "TEXCOORD_0" : 10
                    },
                    "indices" : 11,
                    "material" : 2
                }
            ]
        },
        {
            "name" : "Sphere.001_Sphere.002",
            "primitives" : [
                {
                    "attributes" : {
                        "POSITION" : 12,
                        "NORMAL" : 13,
                        "TEXCOORD_0" : 14
                    },
                    "indices" : 11,
                    "material" : 2
                }
            ]
        },
        {
            "name" : "Sphere.002_Sphere.003",
            "primitives" : [
                {
                    "attributes" : {
                        "POSITION" : 15,
                        "NORMAL" : 16,
                        "TEXCOORD_0" : 17
                    },
                    "indices" : 11,
                    "material" : 2
                }
            ]
        }
    ],
    "accessors" : [
        {
            "bufferView" : 0,
            "componentType" : 5126,
            "count" : 676,
            "max" : [
                67.8551025390625,
                -9.053674697875977,
                67.8551025390625
            ],
            "min" : [
                -67.8551025390625,
                -29.29242515563965,
                -67.8551025390625
            ],
            "type" : "VEC3"
        },
        {
            "bufferView" : 1,
            "componentType" : 5126,
            "count" : 676,
            "type" : "VEC3"
        },
        {
            "bufferView" : 2,
            "componentType" : 5126,
            "count" : 676,
            "type" : "VEC2"
        },
        {
            "bufferView" : 3,
            "componentType" : 5123,
            "count" : 1284,
            "type" : "SCALAR"
        },
        {
            "bufferView" : 4,
            "componentType" : 5126,
            "count" : 188,
            "max" : [
                47.68317413330078,
                1.651574969291687,
                48.821800231933594
            ],
            "min" : [
                -46.11840057373047,
                -16.918325424194336,
                -44.979774475097656
            ],
            "type" : "VEC3"
        },
        {
            "bufferView" : 5,
            "componentType" : 5126,
            "count" : 188,
            "type" : "VEC3"
        },
        {
            "bufferView" : 6,
            "componentType" : 5126,
            "count" : 188,
            "type" : "VEC2"
        },
        {
            "bufferView" : 7,
            "componentType" : 5123,
            "count" : 372,
            "type" : "SCALAR"
        },
        {
            "bufferView" : 8,
            "componentType" : 5126,
            "count" : 248034,
            "max" : [
                35.915626525878906,
                10.671324729919434,
                -3.231149911880493
            ],
            "min" : [
                -31.87547492980957,
                -0.12612499296665192,
                -20.318649291992188
            ],
            "type" : "VEC3"
        },
        {
            "bufferView" : 9,
            "componentType" : 5126,
            "count" : 248034,
            "type" : "VEC3"
        },
        {
            "bufferView" : 10,
            "componentType" : 5126,
            "count" : 248034,
            "type" : "VEC2"
        },
        {
            "bufferView" : 11,
            "componentType" : 5125,
            "count" : 374784,
            "type" : "SCALAR"
        },
        {
            "bufferView" : 12,
            "componentType" : 5126,
            "count" : 248034,
            "max" : [
                27.901500701904297,
                9.656299591064453,
                10.555074691772461
            ],
            "min" : [
                -27.14419937133789,
                0.8888750076293945,
                -3.3197999000549316
            ],
            "type" : "VEC3"
        },
        {
            "bufferView" : 13,
            "componentType" : 5126,
            "count" : 248034,
            "type" : "VEC3"
        },
        {
            "bufferView" : 14,
            "componentType" : 5126,
            "count" : 248034,
            "type" : "VEC2"
        },
        {
            "bufferView" : 15,
            "componentType" : 5126,
            "count" : 248034,
            "max" : [
                24.047100067138672,
                9.14175033569336,
                24.040000915527344
            ],
            "min" : [
                -24.537324905395508,
                1.4034500122070312,
                11.793749809265137
            ],
            "type" : "VEC3"
        },
        {
            "bufferView" : 16,
            "componentType" : 5126,
            "count" : 248034,
            "type" : "VEC3"
        },
        {
            "bufferView" : 17,
            "componentType" : 5126,
            "count" : 248034,
            "type" : "VEC2"
        }
    ],
    "bufferViews" : [
        {
            "buffer" : 0,
            "byteLength" : 8112,
            "byteOffset" : 0
        },
        {
            "buffer" : 0,
            "byteLength" : 8112,
            "byteOffset" : 8112
        },
        {
            "buffer" : 0,
            "byteLength" : 5408,
            "byteOffset" : 16224
        },
        {
            "buffer" : 0,
            "byteLength" : 2568,
            "byteOffset" : 21632
        },
        {
            "buffer" : 0,
            "byteLength" : 2256,
            "byteOffset" : 24200
        },
        {
            "buffer" : 0,
            "byteLength" : 2256,
            "byteOffset" : 26456
        },
        {
            "buffer" : 0,
            "byteLength" : 1504,
            "byteOffset" : 28712
        },
        {
            "buffer" : 0,
            "byteLength" : 744,
            "byteOffset" : 30216
        },
        {
            "buffer" : 0,
            "byteLength" : 2976408,
            "byteOffset" : 30960
        },
        {
            "buffer" : 0,
            "byteLength" : 2976408,
            "byteOffset" : 3007368
        },
        {
            "buffer" : 0,
            "byteLength" : 1984272,
            "byteOffset" : 5983776
        },
        {
            "buffer" : 0,
            "byteLength" : 1499136,
            "byteOffset" : 7968048
        },
        {
            "buffer" : 0,
            "byteLength" : 2976408,
            "byteOffset" : 9467184
        },
        {
            "buffer" : 0,
            "byteLength" : 2976408,
            "byteOffset" : 12443592
        },
        {
            "buffer" : 0,
            "byteLength" : 1984272,
            "byteOffset" : 15420000
        },
        {
            "buffer" : 0,
            "byteLength" : 2976408,
            "byteOffset" : 17404272
        },
        {
            "buffer" : 0,
            "byteLength" : 2976408,
            "byteOffset" : 20380680
        },
        {
            "buffer" : 0,
            "byteLength" : 1984272,
            "byteOffset" : 23357088
        }
    ],
    "buffers" : [
        {
            "byteLength" : 25341360,
            "uri" : "test2.bin"
        }
    ]
}
